<mxfile host="app.diagrams.net" agent="Mozilla/5.0 (Windows NT 10.0; Win64; x64) AppleWebKit/537.36 (KHTML, like Gecko) Chrome/131.0.0.0 Safari/537.36" version="25.0.3">
  <diagram name="Page-1" id="SuwBEwT0ZG8TB3iKbq40">
    <mxGraphModel dx="3749" dy="2461" grid="1" gridSize="10" guides="1" tooltips="1" connect="1" arrows="1" fold="1" page="1" pageScale="1" pageWidth="850" pageHeight="1100" math="0" shadow="0">
      <root>
        <mxCell id="0" />
        <mxCell id="1" parent="0" />
        <mxCell id="I7GZB4iUTMxqEj7NX38e-7" value="" style="edgeStyle=orthogonalEdgeStyle;rounded=0;orthogonalLoop=1;jettySize=auto;html=1;" edge="1" parent="1" source="I7GZB4iUTMxqEj7NX38e-1" target="I7GZB4iUTMxqEj7NX38e-4">
          <mxGeometry relative="1" as="geometry" />
        </mxCell>
        <mxCell id="I7GZB4iUTMxqEj7NX38e-1" value="Построить магазин" style="ellipse;whiteSpace=wrap;html=1;aspect=fixed;" vertex="1" parent="1">
          <mxGeometry x="380" y="280" width="120" height="120" as="geometry" />
        </mxCell>
        <mxCell id="I7GZB4iUTMxqEj7NX38e-5" style="edgeStyle=orthogonalEdgeStyle;rounded=0;orthogonalLoop=1;jettySize=auto;html=1;entryX=0;entryY=0.5;entryDx=0;entryDy=0;" edge="1" parent="1" source="I7GZB4iUTMxqEj7NX38e-2" target="I7GZB4iUTMxqEj7NX38e-1">
          <mxGeometry relative="1" as="geometry" />
        </mxCell>
        <mxCell id="I7GZB4iUTMxqEj7NX38e-8" value="Список материалов" style="edgeLabel;html=1;align=center;verticalAlign=middle;resizable=0;points=[];" vertex="1" connectable="0" parent="I7GZB4iUTMxqEj7NX38e-5">
          <mxGeometry x="-0.3857" y="1" relative="1" as="geometry">
            <mxPoint x="27" y="-9" as="offset" />
          </mxGeometry>
        </mxCell>
        <mxCell id="I7GZB4iUTMxqEj7NX38e-2" value="Строительный магазин" style="rounded=0;whiteSpace=wrap;html=1;" vertex="1" parent="1">
          <mxGeometry x="120" y="310" width="120" height="60" as="geometry" />
        </mxCell>
        <mxCell id="I7GZB4iUTMxqEj7NX38e-6" value="" style="edgeStyle=orthogonalEdgeStyle;rounded=0;orthogonalLoop=1;jettySize=auto;html=1;" edge="1" parent="1" source="I7GZB4iUTMxqEj7NX38e-3" target="I7GZB4iUTMxqEj7NX38e-1">
          <mxGeometry relative="1" as="geometry" />
        </mxCell>
        <mxCell id="I7GZB4iUTMxqEj7NX38e-9" value="Проект дома" style="edgeLabel;html=1;align=center;verticalAlign=middle;resizable=0;points=[];" vertex="1" connectable="0" parent="I7GZB4iUTMxqEj7NX38e-6">
          <mxGeometry x="0.1714" y="-3" relative="1" as="geometry">
            <mxPoint x="12" y="-7" as="offset" />
          </mxGeometry>
        </mxCell>
        <mxCell id="I7GZB4iUTMxqEj7NX38e-3" value="Архитектор" style="rounded=0;whiteSpace=wrap;html=1;" vertex="1" parent="1">
          <mxGeometry x="640" y="310" width="120" height="60" as="geometry" />
        </mxCell>
        <mxCell id="I7GZB4iUTMxqEj7NX38e-4" value="Заказчик" style="rounded=0;whiteSpace=wrap;html=1;" vertex="1" parent="1">
          <mxGeometry x="380" y="140" width="120" height="60" as="geometry" />
        </mxCell>
        <mxCell id="I7GZB4iUTMxqEj7NX38e-10" value="Акт приемки" style="text;html=1;align=center;verticalAlign=middle;resizable=0;points=[];autosize=1;strokeColor=none;fillColor=none;" vertex="1" parent="1">
          <mxGeometry x="350" y="230" width="90" height="30" as="geometry" />
        </mxCell>
        <mxCell id="I7GZB4iUTMxqEj7NX38e-14" style="edgeStyle=orthogonalEdgeStyle;rounded=0;orthogonalLoop=1;jettySize=auto;html=1;entryX=0.5;entryY=0;entryDx=0;entryDy=0;" edge="1" parent="1" source="I7GZB4iUTMxqEj7NX38e-11" target="I7GZB4iUTMxqEj7NX38e-12">
          <mxGeometry relative="1" as="geometry" />
        </mxCell>
        <mxCell id="I7GZB4iUTMxqEj7NX38e-11" value="Согласовать проект" style="ellipse;whiteSpace=wrap;html=1;aspect=fixed;" vertex="1" parent="1">
          <mxGeometry x="130" y="600" width="100" height="100" as="geometry" />
        </mxCell>
        <mxCell id="I7GZB4iUTMxqEj7NX38e-15" style="edgeStyle=orthogonalEdgeStyle;rounded=0;orthogonalLoop=1;jettySize=auto;html=1;" edge="1" parent="1" source="I7GZB4iUTMxqEj7NX38e-12" target="I7GZB4iUTMxqEj7NX38e-13">
          <mxGeometry relative="1" as="geometry" />
        </mxCell>
        <mxCell id="I7GZB4iUTMxqEj7NX38e-25" style="edgeStyle=orthogonalEdgeStyle;rounded=0;orthogonalLoop=1;jettySize=auto;html=1;" edge="1" parent="1" source="I7GZB4iUTMxqEj7NX38e-12" target="I7GZB4iUTMxqEj7NX38e-21">
          <mxGeometry relative="1" as="geometry" />
        </mxCell>
        <mxCell id="I7GZB4iUTMxqEj7NX38e-28" style="edgeStyle=orthogonalEdgeStyle;rounded=0;orthogonalLoop=1;jettySize=auto;html=1;entryX=0.5;entryY=1;entryDx=0;entryDy=0;" edge="1" parent="1" source="I7GZB4iUTMxqEj7NX38e-12" target="I7GZB4iUTMxqEj7NX38e-21">
          <mxGeometry relative="1" as="geometry">
            <Array as="points">
              <mxPoint x="400" y="880" />
              <mxPoint x="110" y="880" />
            </Array>
          </mxGeometry>
        </mxCell>
        <mxCell id="I7GZB4iUTMxqEj7NX38e-12" value="Выполнить строительные работы" style="ellipse;whiteSpace=wrap;html=1;aspect=fixed;" vertex="1" parent="1">
          <mxGeometry x="350" y="720" width="100" height="100" as="geometry" />
        </mxCell>
        <mxCell id="I7GZB4iUTMxqEj7NX38e-19" style="edgeStyle=orthogonalEdgeStyle;rounded=0;orthogonalLoop=1;jettySize=auto;html=1;" edge="1" parent="1" source="I7GZB4iUTMxqEj7NX38e-13">
          <mxGeometry relative="1" as="geometry">
            <mxPoint x="810" y="890" as="targetPoint" />
          </mxGeometry>
        </mxCell>
        <mxCell id="I7GZB4iUTMxqEj7NX38e-13" value="Сдать выполненные работы" style="ellipse;whiteSpace=wrap;html=1;aspect=fixed;" vertex="1" parent="1">
          <mxGeometry x="590" y="840" width="100" height="100" as="geometry" />
        </mxCell>
        <mxCell id="I7GZB4iUTMxqEj7NX38e-16" value="" style="endArrow=classic;html=1;rounded=0;entryX=0.5;entryY=0;entryDx=0;entryDy=0;" edge="1" parent="1" target="I7GZB4iUTMxqEj7NX38e-11">
          <mxGeometry width="50" height="50" relative="1" as="geometry">
            <mxPoint x="180" y="520" as="sourcePoint" />
            <mxPoint x="210" y="490" as="targetPoint" />
          </mxGeometry>
        </mxCell>
        <mxCell id="I7GZB4iUTMxqEj7NX38e-17" value="Проект дома" style="text;html=1;align=center;verticalAlign=middle;resizable=0;points=[];autosize=1;strokeColor=none;fillColor=none;" vertex="1" parent="1">
          <mxGeometry x="180" y="535" width="90" height="30" as="geometry" />
        </mxCell>
        <mxCell id="I7GZB4iUTMxqEj7NX38e-18" value="Утвержденный проект" style="text;html=1;align=center;verticalAlign=middle;resizable=0;points=[];autosize=1;strokeColor=none;fillColor=none;" vertex="1" parent="1">
          <mxGeometry x="240" y="618" width="150" height="30" as="geometry" />
        </mxCell>
        <mxCell id="I7GZB4iUTMxqEj7NX38e-20" value="Акт приемки" style="text;html=1;align=center;verticalAlign=middle;resizable=0;points=[];autosize=1;strokeColor=none;fillColor=none;" vertex="1" parent="1">
          <mxGeometry x="690" y="858" width="90" height="30" as="geometry" />
        </mxCell>
        <mxCell id="I7GZB4iUTMxqEj7NX38e-29" style="edgeStyle=orthogonalEdgeStyle;rounded=0;orthogonalLoop=1;jettySize=auto;html=1;entryX=0;entryY=0.5;entryDx=0;entryDy=0;" edge="1" parent="1" source="I7GZB4iUTMxqEj7NX38e-21" target="I7GZB4iUTMxqEj7NX38e-11">
          <mxGeometry relative="1" as="geometry" />
        </mxCell>
        <mxCell id="I7GZB4iUTMxqEj7NX38e-21" value="Заказчик" style="rounded=0;whiteSpace=wrap;html=1;" vertex="1" parent="1">
          <mxGeometry x="50" y="740" width="120" height="60" as="geometry" />
        </mxCell>
        <mxCell id="I7GZB4iUTMxqEj7NX38e-22" value="База документов" style="rounded=0;whiteSpace=wrap;html=1;" vertex="1" parent="1">
          <mxGeometry x="340" y="920" width="120" height="60" as="geometry" />
        </mxCell>
        <mxCell id="I7GZB4iUTMxqEj7NX38e-23" value="Акты выполненных работ" style="text;html=1;align=center;verticalAlign=middle;resizable=0;points=[];autosize=1;strokeColor=none;fillColor=none;" vertex="1" parent="1">
          <mxGeometry x="450" y="740" width="170" height="30" as="geometry" />
        </mxCell>
        <mxCell id="I7GZB4iUTMxqEj7NX38e-24" value="" style="endArrow=classic;html=1;rounded=0;exitX=0.5;exitY=1;exitDx=0;exitDy=0;entryX=0.5;entryY=0;entryDx=0;entryDy=0;" edge="1" parent="1" source="I7GZB4iUTMxqEj7NX38e-12" target="I7GZB4iUTMxqEj7NX38e-22">
          <mxGeometry width="50" height="50" relative="1" as="geometry">
            <mxPoint x="530" y="890" as="sourcePoint" />
            <mxPoint x="580" y="840" as="targetPoint" />
          </mxGeometry>
        </mxCell>
        <mxCell id="I7GZB4iUTMxqEj7NX38e-26" value="Акты выполненных работ" style="text;html=1;align=center;verticalAlign=middle;resizable=0;points=[];autosize=1;strokeColor=none;fillColor=none;" vertex="1" parent="1">
          <mxGeometry x="180" y="740" width="170" height="30" as="geometry" />
        </mxCell>
        <mxCell id="I7GZB4iUTMxqEj7NX38e-27" value="Чеки на материалы" style="text;html=1;align=center;verticalAlign=middle;resizable=0;points=[];autosize=1;strokeColor=none;fillColor=none;" vertex="1" parent="1">
          <mxGeometry x="400" y="828" width="130" height="30" as="geometry" />
        </mxCell>
        <mxCell id="I7GZB4iUTMxqEj7NX38e-30" value="Список требований" style="text;html=1;align=center;verticalAlign=middle;resizable=0;points=[];autosize=1;strokeColor=none;fillColor=none;" vertex="1" parent="1">
          <mxGeometry x="-20" y="700" width="130" height="30" as="geometry" />
        </mxCell>
        <mxCell id="I7GZB4iUTMxqEj7NX38e-36" style="edgeStyle=orthogonalEdgeStyle;rounded=0;orthogonalLoop=1;jettySize=auto;html=1;entryX=0;entryY=0.5;entryDx=0;entryDy=0;" edge="1" parent="1" source="I7GZB4iUTMxqEj7NX38e-31" target="I7GZB4iUTMxqEj7NX38e-32">
          <mxGeometry relative="1" as="geometry" />
        </mxCell>
        <mxCell id="I7GZB4iUTMxqEj7NX38e-37" style="edgeStyle=orthogonalEdgeStyle;rounded=0;orthogonalLoop=1;jettySize=auto;html=1;entryX=0;entryY=0.5;entryDx=0;entryDy=0;" edge="1" parent="1" source="I7GZB4iUTMxqEj7NX38e-31" target="I7GZB4iUTMxqEj7NX38e-33">
          <mxGeometry relative="1" as="geometry">
            <Array as="points">
              <mxPoint x="-1100" y="190" />
              <mxPoint x="-1100" y="485" />
            </Array>
          </mxGeometry>
        </mxCell>
        <mxCell id="I7GZB4iUTMxqEj7NX38e-38" style="edgeStyle=orthogonalEdgeStyle;rounded=0;orthogonalLoop=1;jettySize=auto;html=1;entryX=0;entryY=0.5;entryDx=0;entryDy=0;" edge="1" parent="1" source="I7GZB4iUTMxqEj7NX38e-31" target="I7GZB4iUTMxqEj7NX38e-34">
          <mxGeometry relative="1" as="geometry">
            <Array as="points">
              <mxPoint x="-1100" y="190" />
              <mxPoint x="-1100" y="650" />
            </Array>
          </mxGeometry>
        </mxCell>
        <mxCell id="I7GZB4iUTMxqEj7NX38e-39" style="edgeStyle=orthogonalEdgeStyle;rounded=0;orthogonalLoop=1;jettySize=auto;html=1;entryX=0;entryY=0.5;entryDx=0;entryDy=0;" edge="1" parent="1" source="I7GZB4iUTMxqEj7NX38e-31" target="I7GZB4iUTMxqEj7NX38e-35">
          <mxGeometry relative="1" as="geometry">
            <Array as="points">
              <mxPoint x="-1100" y="190" />
              <mxPoint x="-1100" y="808" />
            </Array>
          </mxGeometry>
        </mxCell>
        <mxCell id="I7GZB4iUTMxqEj7NX38e-47" style="edgeStyle=orthogonalEdgeStyle;rounded=0;orthogonalLoop=1;jettySize=auto;html=1;endArrow=none;endFill=0;startArrow=classic;startFill=1;" edge="1" parent="1" source="I7GZB4iUTMxqEj7NX38e-31">
          <mxGeometry relative="1" as="geometry">
            <mxPoint x="-1200" y="840" as="targetPoint" />
          </mxGeometry>
        </mxCell>
        <mxCell id="I7GZB4iUTMxqEj7NX38e-52" style="edgeStyle=orthogonalEdgeStyle;rounded=0;orthogonalLoop=1;jettySize=auto;html=1;exitX=0;exitY=0;exitDx=0;exitDy=0;" edge="1" parent="1" source="I7GZB4iUTMxqEj7NX38e-31">
          <mxGeometry relative="1" as="geometry">
            <mxPoint x="-1235" as="targetPoint" />
          </mxGeometry>
        </mxCell>
        <mxCell id="I7GZB4iUTMxqEj7NX38e-55" style="edgeStyle=orthogonalEdgeStyle;rounded=0;orthogonalLoop=1;jettySize=auto;html=1;exitX=0.5;exitY=0;exitDx=0;exitDy=0;entryX=0;entryY=0.25;entryDx=0;entryDy=0;" edge="1" parent="1" source="I7GZB4iUTMxqEj7NX38e-31" target="I7GZB4iUTMxqEj7NX38e-54">
          <mxGeometry relative="1" as="geometry" />
        </mxCell>
        <mxCell id="I7GZB4iUTMxqEj7NX38e-56" value="Отчет о закупленных&amp;nbsp;&lt;div&gt;материалах&lt;/div&gt;" style="edgeLabel;html=1;align=center;verticalAlign=middle;resizable=0;points=[];" vertex="1" connectable="0" parent="I7GZB4iUTMxqEj7NX38e-55">
          <mxGeometry x="-0.8661" y="-2" relative="1" as="geometry">
            <mxPoint x="58" y="-7" as="offset" />
          </mxGeometry>
        </mxCell>
        <mxCell id="I7GZB4iUTMxqEj7NX38e-31" value="Закупить строительный материалы" style="ellipse;whiteSpace=wrap;html=1;aspect=fixed;" vertex="1" parent="1">
          <mxGeometry x="-1250" y="140" width="100" height="100" as="geometry" />
        </mxCell>
        <mxCell id="I7GZB4iUTMxqEj7NX38e-46" style="edgeStyle=orthogonalEdgeStyle;rounded=0;orthogonalLoop=1;jettySize=auto;html=1;endArrow=none;endFill=0;startArrow=classic;startFill=1;" edge="1" parent="1" source="I7GZB4iUTMxqEj7NX38e-32">
          <mxGeometry relative="1" as="geometry">
            <mxPoint x="-1200" y="840" as="targetPoint" />
            <Array as="points">
              <mxPoint x="-1199" y="360" />
              <mxPoint x="-1199" y="840" />
            </Array>
          </mxGeometry>
        </mxCell>
        <mxCell id="I7GZB4iUTMxqEj7NX38e-57" style="edgeStyle=orthogonalEdgeStyle;rounded=0;orthogonalLoop=1;jettySize=auto;html=1;entryX=0;entryY=0.5;entryDx=0;entryDy=0;" edge="1" parent="1" source="I7GZB4iUTMxqEj7NX38e-32" target="I7GZB4iUTMxqEj7NX38e-54">
          <mxGeometry relative="1" as="geometry">
            <Array as="points">
              <mxPoint x="-840" y="330" />
              <mxPoint x="-840" y="50" />
            </Array>
          </mxGeometry>
        </mxCell>
        <mxCell id="I7GZB4iUTMxqEj7NX38e-58" style="edgeStyle=orthogonalEdgeStyle;rounded=0;orthogonalLoop=1;jettySize=auto;html=1;" edge="1" parent="1" source="I7GZB4iUTMxqEj7NX38e-32" target="I7GZB4iUTMxqEj7NX38e-33">
          <mxGeometry relative="1" as="geometry">
            <Array as="points">
              <mxPoint x="-840" y="330" />
              <mxPoint x="-840" y="450" />
            </Array>
          </mxGeometry>
        </mxCell>
        <mxCell id="I7GZB4iUTMxqEj7NX38e-32" value="Подготовить строительную площадку" style="ellipse;whiteSpace=wrap;html=1;aspect=fixed;" vertex="1" parent="1">
          <mxGeometry x="-1050" y="280" width="100" height="100" as="geometry" />
        </mxCell>
        <mxCell id="I7GZB4iUTMxqEj7NX38e-45" style="edgeStyle=orthogonalEdgeStyle;rounded=0;orthogonalLoop=1;jettySize=auto;html=1;endArrow=none;endFill=0;startArrow=classic;startFill=1;" edge="1" parent="1" source="I7GZB4iUTMxqEj7NX38e-33">
          <mxGeometry relative="1" as="geometry">
            <mxPoint x="-1200" y="840" as="targetPoint" />
            <Array as="points">
              <mxPoint x="-1199" y="520" />
              <mxPoint x="-1199" y="840" />
            </Array>
          </mxGeometry>
        </mxCell>
        <mxCell id="I7GZB4iUTMxqEj7NX38e-61" style="edgeStyle=orthogonalEdgeStyle;rounded=0;orthogonalLoop=1;jettySize=auto;html=1;entryX=0.5;entryY=0;entryDx=0;entryDy=0;" edge="1" parent="1" source="I7GZB4iUTMxqEj7NX38e-33" target="I7GZB4iUTMxqEj7NX38e-34">
          <mxGeometry relative="1" as="geometry">
            <Array as="points">
              <mxPoint x="-560" y="450" />
            </Array>
          </mxGeometry>
        </mxCell>
        <mxCell id="I7GZB4iUTMxqEj7NX38e-33" value="Возвести несущие конструкции" style="ellipse;whiteSpace=wrap;html=1;aspect=fixed;" vertex="1" parent="1">
          <mxGeometry x="-810" y="435" width="100" height="100" as="geometry" />
        </mxCell>
        <mxCell id="I7GZB4iUTMxqEj7NX38e-44" style="edgeStyle=orthogonalEdgeStyle;rounded=0;orthogonalLoop=1;jettySize=auto;html=1;endArrow=none;endFill=0;" edge="1" parent="1" source="I7GZB4iUTMxqEj7NX38e-34">
          <mxGeometry relative="1" as="geometry">
            <mxPoint x="-1200" y="840" as="targetPoint" />
            <Array as="points">
              <mxPoint x="-1199" y="680" />
              <mxPoint x="-1199" y="840" />
            </Array>
          </mxGeometry>
        </mxCell>
        <mxCell id="I7GZB4iUTMxqEj7NX38e-63" style="edgeStyle=orthogonalEdgeStyle;rounded=0;orthogonalLoop=1;jettySize=auto;html=1;entryX=0.5;entryY=0;entryDx=0;entryDy=0;" edge="1" parent="1" source="I7GZB4iUTMxqEj7NX38e-34" target="I7GZB4iUTMxqEj7NX38e-35">
          <mxGeometry relative="1" as="geometry" />
        </mxCell>
        <mxCell id="I7GZB4iUTMxqEj7NX38e-64" style="edgeStyle=orthogonalEdgeStyle;rounded=0;orthogonalLoop=1;jettySize=auto;html=1;entryX=0.625;entryY=1.017;entryDx=0;entryDy=0;entryPerimeter=0;" edge="1" parent="1" source="I7GZB4iUTMxqEj7NX38e-34" target="I7GZB4iUTMxqEj7NX38e-54">
          <mxGeometry relative="1" as="geometry">
            <mxPoint x="-360" y="89.99999999999977" as="targetPoint" />
            <Array as="points">
              <mxPoint x="-360" y="650" />
            </Array>
          </mxGeometry>
        </mxCell>
        <mxCell id="I7GZB4iUTMxqEj7NX38e-34" value="Соорудить кровельное покрытие" style="ellipse;whiteSpace=wrap;html=1;aspect=fixed;" vertex="1" parent="1">
          <mxGeometry x="-610" y="600" width="100" height="100" as="geometry" />
        </mxCell>
        <mxCell id="I7GZB4iUTMxqEj7NX38e-70" style="edgeStyle=orthogonalEdgeStyle;rounded=0;orthogonalLoop=1;jettySize=auto;html=1;" edge="1" parent="1" source="I7GZB4iUTMxqEj7NX38e-35">
          <mxGeometry relative="1" as="geometry">
            <mxPoint x="-160" y="808" as="targetPoint" />
          </mxGeometry>
        </mxCell>
        <mxCell id="I7GZB4iUTMxqEj7NX38e-35" value="Провести внутреннюю и внешнюю отделку" style="ellipse;whiteSpace=wrap;html=1;aspect=fixed;" vertex="1" parent="1">
          <mxGeometry x="-410" y="758" width="100" height="100" as="geometry" />
        </mxCell>
        <mxCell id="I7GZB4iUTMxqEj7NX38e-40" value="" style="endArrow=classic;html=1;rounded=0;entryX=0;entryY=1;entryDx=0;entryDy=0;" edge="1" parent="1" target="I7GZB4iUTMxqEj7NX38e-35">
          <mxGeometry width="50" height="50" relative="1" as="geometry">
            <mxPoint x="-1360" y="840" as="sourcePoint" />
            <mxPoint x="-1210" y="880" as="targetPoint" />
          </mxGeometry>
        </mxCell>
        <mxCell id="I7GZB4iUTMxqEj7NX38e-41" value="Список приобретенных&lt;div&gt;&amp;nbsp;материалов&lt;/div&gt;" style="text;html=1;align=center;verticalAlign=middle;resizable=0;points=[];autosize=1;strokeColor=none;fillColor=none;" vertex="1" parent="1">
          <mxGeometry x="-1150" y="140" width="150" height="40" as="geometry" />
        </mxCell>
        <mxCell id="I7GZB4iUTMxqEj7NX38e-42" value="Утвержденный&lt;div&gt;проект&lt;/div&gt;" style="text;html=1;align=center;verticalAlign=middle;resizable=0;points=[];autosize=1;strokeColor=none;fillColor=none;" vertex="1" parent="1">
          <mxGeometry x="-1320" y="800" width="110" height="40" as="geometry" />
        </mxCell>
        <mxCell id="I7GZB4iUTMxqEj7NX38e-48" value="" style="endArrow=classic;html=1;rounded=0;entryX=0;entryY=0.5;entryDx=0;entryDy=0;" edge="1" parent="1" target="I7GZB4iUTMxqEj7NX38e-31">
          <mxGeometry width="50" height="50" relative="1" as="geometry">
            <mxPoint x="-1360" y="190" as="sourcePoint" />
            <mxPoint x="-1300" y="180" as="targetPoint" />
          </mxGeometry>
        </mxCell>
        <mxCell id="I7GZB4iUTMxqEj7NX38e-49" value="Список&amp;nbsp;&lt;div&gt;материалов&lt;/div&gt;" style="text;html=1;align=center;verticalAlign=middle;resizable=0;points=[];autosize=1;strokeColor=none;fillColor=none;" vertex="1" parent="1">
          <mxGeometry x="-1350" y="140" width="90" height="40" as="geometry" />
        </mxCell>
        <mxCell id="I7GZB4iUTMxqEj7NX38e-53" value="Чеки на&amp;nbsp;&lt;div&gt;материалы&lt;/div&gt;" style="text;html=1;align=center;verticalAlign=middle;resizable=0;points=[];autosize=1;strokeColor=none;fillColor=none;" vertex="1" parent="1">
          <mxGeometry x="-1320" y="30" width="90" height="40" as="geometry" />
        </mxCell>
        <mxCell id="I7GZB4iUTMxqEj7NX38e-54" value="База документов" style="shape=process;whiteSpace=wrap;html=1;backgroundOutline=1;" vertex="1" parent="1">
          <mxGeometry x="-660" y="20" width="480" height="60" as="geometry" />
        </mxCell>
        <mxCell id="I7GZB4iUTMxqEj7NX38e-59" value="Акт готовности&amp;nbsp;&lt;div&gt;площадки&lt;/div&gt;" style="text;html=1;align=center;verticalAlign=middle;resizable=0;points=[];autosize=1;strokeColor=none;fillColor=none;" vertex="1" parent="1">
          <mxGeometry x="-950" y="283" width="110" height="40" as="geometry" />
        </mxCell>
        <mxCell id="I7GZB4iUTMxqEj7NX38e-62" value="Акт о завершении&lt;div&gt;возведения&amp;nbsp;&lt;/div&gt;&lt;div&gt;несущей коснтрукции&lt;/div&gt;" style="text;html=1;align=center;verticalAlign=middle;resizable=0;points=[];autosize=1;strokeColor=none;fillColor=none;" vertex="1" parent="1">
          <mxGeometry x="-720" y="390" width="140" height="60" as="geometry" />
        </mxCell>
        <mxCell id="I7GZB4iUTMxqEj7NX38e-66" style="edgeStyle=orthogonalEdgeStyle;rounded=0;orthogonalLoop=1;jettySize=auto;html=1;exitX=1;exitY=0;exitDx=0;exitDy=0;entryX=0.208;entryY=0.989;entryDx=0;entryDy=0;entryPerimeter=0;" edge="1" parent="1" source="I7GZB4iUTMxqEj7NX38e-33" target="I7GZB4iUTMxqEj7NX38e-54">
          <mxGeometry relative="1" as="geometry" />
        </mxCell>
        <mxCell id="I7GZB4iUTMxqEj7NX38e-67" value="Акт о сооружении&amp;nbsp;&lt;div&gt;кровельного покрытия&lt;/div&gt;" style="text;html=1;align=center;verticalAlign=middle;resizable=0;points=[];autosize=1;strokeColor=none;fillColor=none;" vertex="1" parent="1">
          <mxGeometry x="-520" y="600" width="150" height="40" as="geometry" />
        </mxCell>
        <mxCell id="I7GZB4iUTMxqEj7NX38e-68" style="edgeStyle=orthogonalEdgeStyle;rounded=0;orthogonalLoop=1;jettySize=auto;html=1;exitX=1;exitY=0;exitDx=0;exitDy=0;entryX=0.698;entryY=1.017;entryDx=0;entryDy=0;entryPerimeter=0;" edge="1" parent="1" source="I7GZB4iUTMxqEj7NX38e-35" target="I7GZB4iUTMxqEj7NX38e-54">
          <mxGeometry relative="1" as="geometry" />
        </mxCell>
        <mxCell id="I7GZB4iUTMxqEj7NX38e-69" value="Акт о продлении&lt;div&gt;отделки&lt;/div&gt;" style="text;html=1;align=center;verticalAlign=middle;resizable=0;points=[];autosize=1;strokeColor=none;fillColor=none;" vertex="1" parent="1">
          <mxGeometry x="-330" y="680" width="120" height="40" as="geometry" />
        </mxCell>
        <mxCell id="I7GZB4iUTMxqEj7NX38e-71" value="Акт о выполненных&lt;div&gt;&amp;nbsp;работах&lt;/div&gt;" style="text;html=1;align=center;verticalAlign=middle;resizable=0;points=[];autosize=1;strokeColor=none;fillColor=none;" vertex="1" parent="1">
          <mxGeometry x="-300" y="760" width="130" height="40" as="geometry" />
        </mxCell>
      </root>
    </mxGraphModel>
  </diagram>
</mxfile>
